<svg xmlns="http://www.w3.org/2000/svg" width="32" height="32" viewBox="0 0 50 50"><title>IconesPgInicial</title><g id="250fd505-7577-4ed9-8bed-44fb2683fa10" data-name="Secretaria Academica"><path d="M25,45a4,4,0,0,0,4-4H21A4,4,0,0,0,25,45Z" fill="#fff"/><path d="M41.93,39.87H8.07V36.61l4-4V22.93c0-6.56,3.52-11.72,9-13.36V8.89a3.89,3.89,0,0,1,7.79,0v.69c5.51,1.64,9,6.8,9,13.36V32.6l4,4ZM9.84,38.1H40.16v-.76l-4-4V22.93c0-6-3.28-10.61-8.35-11.82L27.12,11V8.89a2.13,2.13,0,0,0-4.25,0V11l-.68.16c-5.15,1.22-8.35,5.75-8.35,11.82v10.4l-4,4Z" fill="#fff"/></g></svg>
