<svg xmlns="http://www.w3.org/2000/svg" width="45" height="45" viewBox="0 0 50 50"><title>Icone</title><g id="0ee9f965-36df-431e-b3af-ec6589ec6b5f" data-name="Avaliacoes"><path d="M38.67,41.42H11.33V8.58H30.12l8.55,8.55Zm-26-1.35H37.32V17.69L29.56,9.93H12.68Z" fill="#fff"/><polygon points="37.99 18.08 29.17 18.08 29.17 9.25 30.52 9.25 30.52 16.73 37.99 16.73 37.99 18.08" fill="#fff"/><path d="M27.1,35.23,26.44,33a.13.13,0,0,0-.15-.11H20.71a.13.13,0,0,0-.15.11l-.66,2.19a.36.36,0,0,1-.38.28H17.58a.28.28,0,0,1-.24-.11.32.32,0,0,1,0-.28l4.56-14.25a.36.36,0,0,1,.38-.28h2.49a.36.36,0,0,1,.38.28L29.7,35.12a.3.3,0,0,1,0,.13q0,.26-.3.26H27.48A.36.36,0,0,1,27.1,35.23ZM21.33,31h4.35q.13,0,.11-.15l-2.19-7.24c0-.06,0-.09-.07-.09s-.07,0-.1.09l-2.19,7.24Q21.2,31,21.33,31Z" fill="#fff"/></g></svg>