<svg xmlns="http://www.w3.org/2000/svg" width="45" height="45" viewBox="0 0 50 50"><title>Icone</title><g id="82e3552f-e471-40fc-9a54-b0ef12cd49f0" data-name="Calendario"><path d="M37.7,11H35.56V8.77a.72.72,0,0,0-1.44,0V11H15.88V8.77a.72.72,0,0,0-1.44,0V11H12.3a2.7,2.7,0,0,0-2.7,2.7V39.25A2.7,2.7,0,0,0,12.3,42H37.7a2.7,2.7,0,0,0,2.7-2.7V13.7A2.7,2.7,0,0,0,37.7,11ZM12.3,12.44H37.7A1.26,1.26,0,0,1,39,13.7v5.85H11V13.7A1.26,1.26,0,0,1,12.3,12.44ZM37.7,40.51H12.3A1.26,1.26,0,0,1,11,39.25V21H39V39.25A1.26,1.26,0,0,1,37.7,40.51Z" fill="#fff"/></g></svg>