<svg xmlns="http://www.w3.org/2000/svg" width="45" height="45" viewBox="0 0 50 50"><title>Icone</title><g id="0b59adca-1e1b-47ba-80e0-eb54dfedf70d" data-name="Colaboracao"><path d="M34.06,26.39a22.81,22.81,0,0,0-6.4,1.08,13.21,13.21,0,0,1,1.47,1.07,20.77,20.77,0,0,1,4.92-.72c4.3,0,12.66,2.35,12.66,6.66V39H32.19v1.44h16v-6C48.16,28.72,38.21,26.39,34.06,26.39Z" fill="#fff"/><path d="M30,40.48H1.84v-6c0-5.77,9.95-8.1,14.1-8.1S30,28.72,30,34.49ZM3.28,39H28.6V34.49c0-4.31-8.36-6.66-12.66-6.66S3.28,30.18,3.28,34.49Z" fill="#fff"/><path d="M34.06,23.61a7,7,0,1,1,7-7A7.05,7.05,0,0,1,34.06,23.61Zm0-12.65a5.61,5.61,0,1,0,5.58,5.61A5.61,5.61,0,0,0,34.06,11Z" fill="#fff"/><path d="M15.94,23.61a7,7,0,1,1,7-7A7.05,7.05,0,0,1,15.94,23.61Zm0-12.65a5.61,5.61,0,1,0,5.59,5.61A5.61,5.61,0,0,0,15.94,11Z" fill="#fff"/></g></svg>