<svg xmlns="http://www.w3.org/2000/svg" width="45" height="45" viewBox="0 0 50 50"><title>Icone</title><g id="a6b1795e-7487-425b-aa84-f259bca523a0" data-name="Colecoes"><path d="M39.52,36H16.1a2.32,2.32,0,0,1-2.32-2.32V10.24A2.32,2.32,0,0,1,16.1,7.92H39.52a2.32,2.32,0,0,1,2.32,2.32V33.66A2.33,2.33,0,0,1,39.52,36ZM16.1,9.36a.88.88,0,0,0-.88.88V33.66a.88.88,0,0,0,.88.88H39.52a.88.88,0,0,0,.88-.88V10.24a.88.88,0,0,0-.88-.88Z" fill="#fff"/><path d="M35.5,42.08H11.27A3.12,3.12,0,0,1,8.16,39V14.74a.72.72,0,0,1,1.44,0V39a1.68,1.68,0,0,0,1.68,1.68H35.5a.72.72,0,1,1,0,1.44Z" fill="#fff"/></g></svg>