<svg xmlns="http://www.w3.org/2000/svg" width="45" height="45" viewBox="0 0 50 50"><title>Icone</title><g id="cb127c12-32a1-4f41-a5f2-4581d974025d" data-name="Comunicacao"><path d="M39,11.56H11a2.77,2.77,0,0,0-2.77,2.77V35.67A2.77,2.77,0,0,0,11,38.44H39a2.77,2.77,0,0,0,2.77-2.77V14.33A2.77,2.77,0,0,0,39,11.56ZM11,13H39a1.33,1.33,0,0,1,1.2.78L25,25.74,9.74,13.94A1.32,1.32,0,0,1,11,13ZM39,37H11a1.34,1.34,0,0,1-1.33-1.33v-20L25,27.57,40.34,15.51V35.67A1.34,1.34,0,0,1,39,37Z" fill="#fff"/></g></svg>