<?xml version="1.0" encoding="UTF-8" standalone="no"?>
<!-- Generator: Adobe Illustrator 18.0.0, SVG Export Plug-In . SVG Version: 6.00 Build 0)  -->

<svg
   xmlns:dc="http://purl.org/dc/elements/1.1/"
   xmlns:cc="http://creativecommons.org/ns#"
   xmlns:rdf="http://www.w3.org/1999/02/22-rdf-syntax-ns#"
   xmlns:svg="http://www.w3.org/2000/svg"
   xmlns="http://www.w3.org/2000/svg"
   xmlns:sodipodi="http://sodipodi.sourceforge.net/DTD/sodipodi-0.dtd"
   xmlns:inkscape="http://www.inkscape.org/namespaces/inkscape"
   version="1.1"
   id="Camada_1"
   x="0px"
   y="0px"
   viewBox="0 0 51 51"
   enable-background="new 0 0 595.3 841.9"
   xml:space="preserve"
   inkscape:version="0.48.4 r9939"
   width="100%"
   height="100%"
   sodipodi:docname="icones1.svg"><metadata
   id="metadata3085"><rdf:RDF><cc:Work
       rdf:about=""><dc:format>image/svg+xml</dc:format><dc:type
         rdf:resource="http://purl.org/dc/dcmitype/StillImage" /><dc:title /></cc:Work></rdf:RDF></metadata><defs
   id="defs3083" /><sodipodi:namedview
   pagecolor="#ffffff"
   bordercolor="#666666"
   borderopacity="1"
   objecttolerance="10"
   gridtolerance="10"
   guidetolerance="10"
   inkscape:pageopacity="0"
   inkscape:pageshadow="2"
   inkscape:window-width="1366"
   inkscape:window-height="705"
   id="namedview3081"
   showgrid="false"
   inkscape:zoom="4.8089961"
   inkscape:cx="38.696685"
   inkscape:cy="19.552615"
   inkscape:window-x="-8"
   inkscape:window-y="-8"
   inkscape:window-maximized="1"
   inkscape:current-layer="Camada_1" />






















<path
   style="fill:#800000;stroke:#ffffff;stroke-width:0.99999994000000003;stroke-miterlimit:10;fill-opacity:0"
   inkscape:connector-curvature="0"
   stroke-miterlimit="10"
   d="m 44.346625,27.61123 c 0,-0.784492 0.196079,-1.568986 0.196079,-2.35348 0,-0.784493 0,-1.568985 -0.196079,-2.353479 l 5.294095,-4.118589 c 0.392156,-0.392247 0.588234,-0.980618 0.392156,-1.568987 L 44.934859,8.7833918 C 44.542704,8.1950226 43.954471,7.9988991 43.366238,8.1950226 L 37.091755,10.744626 C 35.719213,9.7640088 34.346669,8.9795158 32.778049,8.3911462 L 31.79766,1.9190772 c 0,-0.5883706 -0.588232,-0.98061638 -1.176464,-0.98061638 h -9.999957 c -0.588232,0 -1.176466,0.39224578 -1.176466,0.98061638 l -0.980387,6.472069 c -1.56862,0.5883696 -2.941164,1.3728626 -4.313708,2.3534798 L 7.8761967,8.1950226 c -0.5882322,-0.1961235 -1.1764659,0 -1.5686207,0.5883692 L 1.2095589,17.216695 c -0.39215488,0.588369 -0.1960775,1.17674 0.3921549,1.568987 l 5.2940944,4.118589 c -0.1960774,0.784494 -0.1960774,1.568986 -0.1960774,2.353479 0,0.784494 0,1.568988 0.1960774,2.35348 l -5.2940944,4.118589 c -0.3921549,0.392247 -0.5882324,0.980616 -0.3921549,1.568987 l 5.0980171,8.433302 c 0.3921548,0.58837 0.9803885,0.784492 1.5686207,0.58837 l 6.2744813,-2.549603 c 1.372544,0.980616 2.745088,1.765109 4.313708,2.35348 l 0.980387,6.472069 c 0.196079,0.588369 0.588234,0.980616 1.176466,0.980616 h 9.999957 c 0.588232,0 1.176464,-0.392247 1.176464,-0.980616 l 0.980389,-6.472069 c 1.56862,-0.588371 2.941164,-1.372864 4.313706,-2.35348 l 6.274483,2.549603 c 0.588233,0.196122 1.176466,0 1.568621,-0.58837 l 5.098017,-8.433302 c 0.392155,-0.588371 0.196078,-1.17674 -0.392156,-1.568987 L 44.346625,27.61123 z m -18.823447,6.668192 c -5.294094,0 -9.411722,-4.118589 -9.411722,-9.217796 0,-5.099205 4.313705,-9.217794 9.411722,-9.217794 5.098018,0 9.411724,4.118589 9.411724,9.217794 0,5.099207 -4.117628,9.217796 -9.411724,9.217796 z"
   id="path3912" /></svg>