<?xml version="1.0" encoding="utf-8"?>
<!-- Generator: Adobe Illustrator 21.1.0, SVG Export Plug-In . SVG Version: 6.00 Build 0)  -->
<svg version="1.1" id="Camada_1" xmlns="http://www.w3.org/2000/svg" xmlns:xlink="http://www.w3.org/1999/xlink" x="0px" y="0px"
	 viewBox="0 0 30 30" style="enable-background:new 0 0 30 30;" xml:space="preserve">
<style type="text/css">
	.st0{fill:#FFFFFF;}
</style>
<g>
	<path class="st0" d="M21.4,7H8.6C7.7,7,7,7.7,7,8.6v12.8C7,22.3,7.7,23,8.6,23h12.8c0.9,0,1.6-0.7,1.6-1.6V8.6
		C23,7.7,22.3,7,21.4,7z M11.8,21.4H8.6v-3.2h3.2V21.4z M11.8,16.6H8.6v-3.2h3.2V16.6z M11.8,11.8H8.6V8.6h3.2V11.8z M16.6,21.4
		h-3.2v-3.2h3.2V21.4z M16.6,16.6h-3.2v-3.2h3.2V16.6z M16.6,11.8h-3.2V8.6h3.2V11.8z M21.4,21.4h-3.2v-3.2h3.2V21.4z M21.4,16.6
		h-3.2v-3.2h3.2V16.6z M21.4,11.8h-3.2V8.6h3.2V11.8z"/>
</g>
</svg>
