<?xml version='1.0' encoding='iso-8859-1'?>
<svg version="1.1" xmlns="http://www.w3.org/2000/svg" viewBox="0 0 26 26" xmlns:xlink="http://www.w3.org/1999/xlink" enable-background="new 0 0 26 26">
  <path d="M22.7,16.7l-9,9C13.5,25.9,13.2,26,13,26c-0.3,0-0.5-0.1-0.7-0.3l-9-9C3.1,16.5,3,16.3,3,16c0-0.3,0.1-0.5,0.3-0.7l1.4-1.4  c0.4-0.4,1-0.4,1.4,0l4,4c0.3,0.3,0.9,0.1,0.9-0.4V1c0-0.6,0.4-1,1-1h2c0.6,0,1,0.4,1,1v16.6c0,0.4,0.5,0.7,0.9,0.4l4-4  c0.4-0.4,1-0.4,1.4,0l1.4,1.4c0.2,0.2,0.3,0.4,0.3,0.7C23,16.3,22.9,16.5,22.7,16.7z"/>
</svg>
