<?xml version="1.0" encoding="UTF-8" standalone="no"?>
<!-- Generator: Adobe Illustrator 18.0.0, SVG Export Plug-In . SVG Version: 6.00 Build 0)  -->

<svg
   xmlns:dc="http://purl.org/dc/elements/1.1/"
   xmlns:cc="http://creativecommons.org/ns#"
   xmlns:rdf="http://www.w3.org/1999/02/22-rdf-syntax-ns#"
   xmlns:svg="http://www.w3.org/2000/svg"
   xmlns="http://www.w3.org/2000/svg"
   xmlns:sodipodi="http://sodipodi.sourceforge.net/DTD/sodipodi-0.dtd"
   xmlns:inkscape="http://www.inkscape.org/namespaces/inkscape"
   version="1.1"
   id="Camada_1"
   x="0px"
   y="0px"
   viewBox="0 0 51 51"
   enable-background="new 0 0 595.3 841.9"
   xml:space="preserve"
   inkscape:version="0.48.4 r9939"
   width="100%"
   height="100%"
   sodipodi:docname="icones3.svg"><metadata
   id="metadata3085"><rdf:RDF><cc:Work
       rdf:about=""><dc:format>image/svg+xml</dc:format><dc:type
         rdf:resource="http://purl.org/dc/dcmitype/StillImage" /><dc:title></dc:title></cc:Work></rdf:RDF></metadata><defs
   id="defs3083" /><sodipodi:namedview
   pagecolor="#ffffff"
   bordercolor="#666666"
   borderopacity="1"
   objecttolerance="10"
   gridtolerance="10"
   guidetolerance="10"
   inkscape:pageopacity="0"
   inkscape:pageshadow="2"
   inkscape:window-width="1366"
   inkscape:window-height="705"
   id="namedview3081"
   showgrid="false"
   inkscape:zoom="7.6745086"
   inkscape:cx="24.965267"
   inkscape:cy="31.906828"
   inkscape:window-x="-8"
   inkscape:window-y="-8"
   inkscape:window-maximized="1"
   inkscape:current-layer="Camada_1" />






















<g
   transform="matrix(2.1350165,0,0,2.1350165,-447.11106,-871.63931)"
   id="g3033"><path
     style="fill:#226e42"
     inkscape:connector-curvature="0"
     d="m 223.2,429 c -0.1,0.1 -0.1,0.1 0,0 -0.3,0.6 -0.2,1.1 -0.2,1.6 0,0.4 -0.1,0.6 -0.5,0.6 -4.2,-0.8 -8.4,-1.6 -12.6,-2.4 -0.1,0 -0.1,-0.1 -0.2,-0.1 -0.1,-0.1 -0.1,-0.3 -0.1,-0.5 0,-5.5 0,-11.1 0,-16.6 0,-0.2 0,-0.3 0,-0.5 0.2,-0.3 0.6,-0.2 0.8,-0.3 0.8,-0.1 1.6,-0.4 2.4,-0.5 1,-0.1 1.9,-0.3 2.8,-0.5 0.9,-0.2 1.9,-0.4 2.8,-0.6 0.9,-0.2 1.9,-0.5 2.8,-0.5 0.3,0 0.7,-0.2 1,-0.3 0.4,0 0.6,0.2 0.5,0.6 0,0.5 -0.1,1 0.1,1.5 0,0 0.1,0.1 0.1,0.1 0.1,0.1 0.2,0.1 0.3,0.1 2.9,0 5.9,0 8.8,0 0.1,0 0.2,0 0.3,-0.1 0.4,0.1 0.6,0.3 0.8,0.7 0,0.1 0,0.3 0,0.4 0,5.3 0,10.5 0,15.8 0,0.1 0,0.3 0,0.4 -0.1,0.4 -0.4,0.5 -0.7,0.7 -0.8,-0.1 -1.7,0 -2.5,0 -2.2,0 -4.3,0 -6.5,0 0.1,0.4 -0.1,0.3 -0.2,0.4 z"
     id="path3035" /><path
     style="fill:#166637"
     inkscape:connector-curvature="0"
     d="m 209.7,411.3 c 0,5.8 0,11.7 0,17.5 -0.3,-0.1 -0.1,-0.3 -0.1,-0.5 0,-5.5 0,-11 0,-16.5 -0.1,-0.2 -0.2,-0.4 0.1,-0.5 z"
     id="path3037" /><path
     style="fill:#156436"
     inkscape:connector-curvature="0"
     d="m 233.4,428.3 c -0.1,-0.2 -0.1,-0.4 -0.1,-0.6 0,-5.2 0,-10.3 0,-15.5 0,-0.2 -0.1,-0.4 0.1,-0.6 0,0.2 0,0.3 0,0.5 0,5.2 0,10.5 0,15.7 0,0.2 0,0.3 0,0.5 z"
     id="path3039" /><path
     style="fill:#166737"
     inkscape:connector-curvature="0"
     d="m 223.2,429 c 0.1,-0.2 0.3,-0.1 0.5,-0.1 2.9,0 5.8,0 8.7,0 0.1,0 0.3,0 0.4,0.1 -0.1,0 -0.3,0.1 -0.4,0.1 -3.1,0 -6.2,0 -9.2,-0.1 z"
     id="path3041" /><path
     style="fill:#166737"
     inkscape:connector-curvature="0"
     d="m 232.6,411 c -0.1,0.2 -0.3,0.1 -0.5,0.1 -2.8,0 -5.6,0 -8.4,0 -0.2,0 -0.4,0.1 -0.5,-0.1 3,0 6.1,0 9.1,0 0.1,-0.1 0.2,-0.1 0.3,0 z"
     id="path3043" /><path
     style="fill:#166637"
     inkscape:connector-curvature="0"
     d="m 223.1,410.8 c -0.3,-0.4 -0.1,-0.9 -0.1,-1.4 0,-0.4 -0.1,-0.6 -0.5,-0.7 0.5,-0.2 0.7,0 0.6,0.5 -0.1,0.6 0,1.1 0,1.6 z"
     id="path3045" /><path
     style="fill:#166737"
     inkscape:connector-curvature="0"
     d="m 222.4,431.2 c 0.4,-0.1 0.5,-0.3 0.5,-0.7 0,-0.5 -0.2,-1 0.1,-1.4 0,0.5 0,1.1 0,1.6 0.1,0.6 -0.1,0.7 -0.6,0.5 z"
     id="path3047" /><path
     style="fill:#ffffff"
     inkscape:connector-curvature="0"
     d="m 223.1,424 c 0.9,0 1.8,0 2.7,0 0.2,0 0.4,0.1 0.5,-0.1 -0.1,-0.6 -0.1,-1.3 0,-1.9 -0.5,-0.2 -1.1,-0.1 -1.6,-0.1 -0.6,0 -1.1,0 -1.7,0 -0.2,-0.2 -0.2,-0.5 0,-0.7 0.9,0 1.8,0 2.7,0 0.2,0 0.4,0.1 0.5,-0.1 -0.1,-0.6 -0.1,-1.3 0,-1.9 -0.2,-0.2 -0.5,-0.1 -0.8,-0.1 -0.8,0 -1.7,0 -2.5,0 -0.2,-0.3 -0.2,-0.6 0.1,-0.9 0.8,0 1.7,0 2.5,0 0.2,0 0.4,0.1 0.6,-0.1 0,-0.6 0.1,-1.2 0,-1.8 l 0,0 c -1,-0.1 -2,0 -3,-0.1 -0.3,-0.3 -0.3,-0.6 0,-0.9 0.9,0 1.7,0 2.6,0 0.2,0 0.4,0.1 0.5,-0.1 0,-0.4 0,-0.9 0,-1.3 0,-0.3 -0.1,-0.4 -0.4,-0.4 -0.9,0 -1.8,0 -2.7,0 -0.4,-0.5 -0.2,-1 -0.1,-1.5 0,0 0.1,-0.1 0.1,-0.1 0.1,-0.1 0.3,-0.1 0.5,-0.1 2.8,0 5.6,0 8.4,0 0.2,0 0.3,0 0.5,0.1 0,3.2 0,6.5 0,9.7 0,2.2 0,4.4 0,6.7 -0.1,0.1 -0.2,0.1 -0.3,0.1 -2.9,0 -5.8,0 -8.7,0 -0.1,0 -0.2,0 -0.3,-0.1 0,0 -0.1,-0.1 -0.1,-0.1 -0.1,-0.5 -0.2,-1 0.1,-1.4 0.9,0 1.8,0 2.7,0 0.3,0 0.5,-0.1 0.5,-0.5 0,-0.5 0.1,-0.9 -0.1,-1.4 l 0,0 c -1,-0.1 -2,0 -3,-0.1 -0.4,-0.3 -0.4,-0.6 -0.2,-0.8 z"
     id="path3049" /><path
     style="fill:#ffffff"
     inkscape:connector-curvature="0"
     d="m 213.9,416.1 c 0.7,-0.2 0.9,0.1 1.1,0.7 0.2,0.6 0.5,1.2 0.8,1.9 0.3,-0.8 0.7,-1.5 1,-2.2 0.2,-0.5 0.5,-0.8 1,-0.7 0.3,0 0.7,0 1.1,-0.1 -0.7,1.3 -1.3,2.4 -1.9,3.6 -0.2,0.3 -0.2,0.5 0,0.8 0.6,1.2 1.3,2.4 1.9,3.6 -0.1,0.1 -0.3,0 -0.5,0.1 -0.2,0.1 -0.4,0 -0.7,0 -0.1,0 -0.3,0 -0.4,-0.1 -0.2,-0.1 -0.4,-0.1 -0.5,-0.3 -0.4,-0.9 -0.8,-1.7 -1.2,-2.7 -0.4,0.9 -0.8,1.8 -1.2,2.7 -0.2,0.1 -0.4,0.1 -0.6,0 -0.3,-0.1 -0.7,-0.1 -1.1,-0.1 0.5,-1 1,-2 1.6,-3 0.3,-0.5 0.3,-0.9 0,-1.4 -0.4,-0.8 -0.8,-1.6 -1.2,-2.4 -0.1,-0.2 -0.2,-0.3 -0.2,-0.5 0.5,0 0.8,0.1 1,0.1 z"
     id="path3051" /><path
     style="fill:#1c6b3e"
     inkscape:connector-curvature="0"
     d="m 232.7,411.9 c 0,5.4 0,10.7 0,16.1 0,0 0,0 -0.1,0 0,-5.3 0,-10.7 0.1,-16.1 0,0 0,0 0,0 z"
     id="path3053" /><path
     style="fill:#156436"
     inkscape:connector-curvature="0"
     d="m 232.5,411.8 c -3.1,0 -6.2,0 -9.3,0 0.1,-0.2 0.4,-0.1 0.5,-0.1 2.7,0 5.5,0 8.2,0 0.2,0 0.4,-0.1 0.6,0.1 z"
     id="path3055" /><path
     style="fill:#156436"
     inkscape:connector-curvature="0"
     d="m 223.1,428.2 c 3.1,0 6.2,0 9.3,0 -0.1,0.2 -0.4,0.1 -0.5,0.1 -2.7,0 -5.5,0 -8.2,0 -0.2,0 -0.4,0.1 -0.6,-0.1 z"
     id="path3057" /><path
     style="fill:#156436"
     inkscape:connector-curvature="0"
     d="m 223.1,413.3 c 0.9,0 1.9,0 2.8,0 0.3,0 0.4,0.1 0.4,0.4 0,0.5 0,1 0,1.5 0,0 -0.1,0 -0.1,0 0,-0.6 0.2,-1.3 -0.1,-1.6 -0.4,-0.4 -1.1,-0.1 -1.7,-0.1 -0.4,0 -0.9,0 -1.3,0 0,-0.1 0,-0.1 0,-0.2 0,0 0,0 0,0 z"
     id="path3059" /><path
     style="fill:#156436"
     inkscape:connector-curvature="0"
     d="m 226.2,424.7 c 0.3,0.6 0.1,1.2 0.1,1.8 0,0.2 -0.2,0.2 -0.4,0.2 -0.9,0 -1.9,0 -2.8,0 0,0 0,-0.1 0,-0.1 0,0 0,0 0,0 0.9,0 1.7,0 2.6,0 0.4,0 0.5,-0.1 0.5,-0.5 0,-0.5 0,-0.9 0,-1.4 z"
     id="path3061" /><path
     style="fill:#156436"
     inkscape:connector-curvature="0"
     d="m 226.3,418 c 0,0.2 -0.2,0.1 -0.3,0.1 -1,0 -1.9,0 -2.9,0 0,0 0,-0.1 0,-0.1 0,0 0,0 0,0 1,0 2,0 3.1,0 0.1,0 0.1,0 0.1,0 z"
     id="path3063" /><path
     style="fill:#156335"
     inkscape:connector-curvature="0"
     d="m 226.2,415.2 c 0,0 0.1,0 0.1,0 0,0.2 -0.2,0.1 -0.3,0.1 -1,0 -1.9,0 -2.9,0 0,0 0,-0.1 0,-0.1 0,0 0,0 0,0 1.1,0 2.1,0 3.1,0 z"
     id="path3065" /><path
     style="fill:#1c6b3e"
     inkscape:connector-curvature="0"
     d="m 226.2,421 c -1,0 -2,0 -3.1,0 0,0 0,-0.1 0,-0.1 1.1,0 2.1,0 3.1,0.1 0,-0.1 0.1,-0.1 0,0 0,0 0,0 0,0 z"
     id="path3067" /><path
     style="fill:#1c6b3e"
     inkscape:connector-curvature="0"
     d="m 226.2,423.8 c -1,0 -2,0 -3,0 0,0 0,-0.1 0,-0.1 1,0 2,0 3,0.1 0,-0.1 0.1,-0.1 0,0 0,0 0,0 0,0 z"
     id="path3069" /><path
     style="fill:#1c6b3e"
     inkscape:connector-curvature="0"
     d="m 226.2,422.1 c -1,0 -2,0 -2.9,0 0,0 0,-0.1 0,-0.1 1,0 2,0 2.9,0 0.1,0 0.1,0 0,0.1 0,-0.1 0,0 0,0 z"
     id="path3071" /><path
     style="fill:#156436"
     inkscape:connector-curvature="0"
     d="m 223.1,416.1 c 0.9,0 1.8,0 2.7,0 0.1,0 0.3,-0.1 0.4,0.1 -1,0 -2.1,0 -3.1,0 0,0 0,0 0,-0.1 0,0.1 0,0 0,0 z"
     id="path3073" /><path
     style="fill:#1c6b3e"
     inkscape:connector-curvature="0"
     d="m 226.2,419.2 c -1,0 -2,0 -2.9,0 0,0 0,-0.1 0,-0.1 1,0 2,0 2.9,0 0.1,0 0.1,0.1 0,0.1 0,0 0,0 0,0 z"
     id="path3075" /><path
     style="fill:#156335"
     inkscape:connector-curvature="0"
     d="m 223.1,424.7 c 0.9,0 1.8,0 2.7,0 0.1,0 0.3,-0.1 0.4,0.1 -1,0 -2.1,0 -3.1,0 0,-0.1 0,-0.1 0,-0.1 0,0 0,0 0,0 z"
     id="path3077" /><path
     style="fill:#166637"
     inkscape:connector-curvature="0"
     d="m 226.2,422.1 c 0,0 0,-0.1 0,-0.1 0,0 0.1,0 0.1,0 0.1,0.6 0.1,1.3 0,1.9 0,0 -0.1,0 -0.1,0 0,0 0,-0.1 0,-0.1 0,-0.6 0,-1.2 0,-1.7 z"
     id="path3079" /><path
     style="fill:#166536"
     inkscape:connector-curvature="0"
     d="m 226.2,419.2 c 0,0 0,-0.1 0,-0.1 0,0 0.1,0 0.1,0 0,0.6 0.1,1.3 0,1.9 0,0 -0.1,0 -0.1,0 0,0 0,-0.1 0,-0.1 0,-0.6 0,-1.1 0,-1.7 z"
     id="path3081" /><path
     style="fill:#166637"
     inkscape:connector-curvature="0"
     d="m 226.3,418 c 0,0 -0.1,0 -0.1,0 0,-0.6 0,-1.2 0,-1.8 0.3,0.6 0.1,1.2 0.1,1.8 z"
     id="path3083" /><path
     style="fill:#166737"
     inkscape:connector-curvature="0"
     d="m 223.1,413.3 c 0,0 0,0.1 0,0.1 -0.4,-0.5 -0.3,-1 -0.1,-1.5 0.1,0.5 0,0.9 0.1,1.4 z"
     id="path3085" /><path
     style="fill:#166737"
     inkscape:connector-curvature="0"
     d="m 223.1,426.5 c 0,0 0,0.1 0,0.1 -0.2,0.5 0,0.9 -0.1,1.4 -0.1,-0.5 -0.3,-1 0.1,-1.5 z"
     id="path3087" /><path
     style="fill:#166737"
     inkscape:connector-curvature="0"
     d="m 223.1,416.1 c 0,0 0,0.1 0,0.1 -0.4,-0.4 -0.4,-0.7 0,-1.1 0,0 0,0.1 0,0.1 -0.1,0.4 -0.1,0.7 0,0.9 z"
     id="path3089" /><path
     style="fill:#166737"
     inkscape:connector-curvature="0"
     d="m 223.1,418 c 0,0 0,0.1 0,0.1 -0.1,0.3 0,0.5 -0.1,0.8 -0.2,-0.3 -0.2,-0.6 0.1,-0.9 z"
     id="path3091" /><path
     style="fill:#166737"
     inkscape:connector-curvature="0"
     d="m 223.1,424.7 c 0,0 0,0.1 0,0.1 -0.3,-0.2 -0.4,-0.5 -0.1,-0.8 0.1,0.2 0,0.4 0.1,0.7 z"
     id="path3093" /><path
     style="fill:#166536"
     inkscape:connector-curvature="0"
     d="m 214,423.6 c 0.2,0 0.4,0 0.6,0 -0.2,0.3 -0.4,0.1 -0.7,0.1 -0.1,0 0,-0.1 0.1,-0.1 z"
     id="path3095" /><path
     style="fill:#156335"
     inkscape:connector-curvature="0"
     d="m 213.9,416.1 c -0.3,0 -0.5,0 -0.8,0 0.3,-0.2 0.5,-0.1 0.8,0 z"
     id="path3097" /><path
     style="fill:#156235"
     inkscape:connector-curvature="0"
     d="m 217.7,423.8 c 0.2,0 0.5,0 0.7,0 -0.2,0.2 -0.5,0.1 -0.7,0.1 0,0 0,0 0,-0.1 0,0 0,0 0,0 z"
     id="path3099" /><path
     style="fill:#166737"
     inkscape:connector-curvature="0"
     d="m 223.1,421.1 c 0,0.2 0,0.5 0,0.7 -0.3,-0.2 -0.3,-0.5 0,-0.7 z"
     id="path3101" /><path
     style="fill:#166637"
     inkscape:connector-curvature="0"
     d="m 217.7,423.8 c 0,0 0,0.1 0,0.1 -0.1,0 -0.3,0 -0.4,0 -0.1,0 -0.1,0 0,-0.1 0,0 0.1,0 0.1,0 0.1,0 0.2,0 0.3,0 z"
     id="path3103" /><path
     style="fill:#1c6b3e"
     inkscape:connector-curvature="0"
     d="m 227.3,421.9 c 0.8,-0.2 1.6,-0.1 2.4,-0.1 0.4,0 0.8,-0.1 1.2,0.1 0,0.1 -0.1,0.2 -0.2,0.2 -1.1,0.1 -2.1,0.1 -3.2,0 -0.1,0 -0.2,-0.1 -0.2,-0.2 z"
     id="path3105" /><path
     style="fill:#1c6b3e"
     inkscape:connector-curvature="0"
     d="m 230.9,421 c -1,0.2 -2.1,0 -3.1,0.1 -0.2,0 -0.4,0.1 -0.5,-0.1 0,-0.1 0.1,-0.2 0.2,-0.2 1.1,-0.1 2.1,-0.1 3.2,0 0.1,0 0.2,0.1 0.2,0.2 z"
     id="path3107" /><path
     style="fill:#1c6b3e"
     inkscape:connector-curvature="0"
     d="m 230.9,423.8 c -1,0.2 -2.1,0 -3.1,0.1 -0.2,0 -0.4,0.1 -0.5,-0.1 0,-0.1 0.1,-0.2 0.2,-0.2 1.1,-0.1 2.1,-0.1 3.2,0 0.1,0 0.2,0.1 0.2,0.2 z"
     id="path3109" /><path
     style="fill:#1c6b3e"
     inkscape:connector-curvature="0"
     d="m 227.3,419.1 c 0.1,-0.2 0.3,-0.1 0.5,-0.1 0.9,0 1.8,0 2.7,0 0.2,0 0.4,-0.1 0.5,0.1 -0.1,0.1 -0.1,0.2 -0.2,0.2 -1.1,0.1 -2.1,0.1 -3.2,0 -0.2,0 -0.3,-0.1 -0.3,-0.2 z"
     id="path3111" /><path
     style="fill:#156436"
     d="M 38.59375 10.75 C 38.380248 10.75 38.1875 10.755248 38.1875 10.96875 C 38.1875 12.24976 37.765745 13.75024 38.40625 15.03125 C 40.754768 15.03125 43.088982 15.026002 45.4375 14.8125 L 45.65625 14.8125 L 45.875 14.8125 C 45.875 13.590715 46.238545 12.378035 45.71875 11.15625 C 45.858204 11.113705 45.875 10.96875 45.875 10.96875 C 45.661498 10.96875 45.65625 10.75 45.65625 10.75 L 38.59375 10.75 z "
     transform="matrix(0.46838046,0,0,0.46838046,209.41808,408.25882)"
     id="path3113" /><path
     style="fill:#156436"
     d="M 38.59375 16.75 C 38.380248 16.75 38.1875 16.755248 38.1875 16.96875 C 38.1875 18.24976 37.765745 19.71899 38.40625 21 C 40.754768 21 43.083734 21.213502 45.21875 21 C 45.432252 21 45.875 21.239503 45.875 20.8125 C 45.875 19.584866 46.249801 18.352634 45.71875 17.125 C 45.858204 17.082455 45.875 16.96875 45.875 16.96875 C 45.661498 16.96875 45.65625 16.75 45.65625 16.75 L 38.59375 16.75 z "
     transform="matrix(0.46838046,0,0,0.46838046,209.41808,408.25882)"
     id="path3115" /><path
     style="fill:#156436"
     inkscape:connector-curvature="0"
     d="m 230.9,424.8 c 0,0.5 0,1.1 0,1.6 0,0.3 -0.1,0.3 -0.3,0.3 -1.1,0 -2.2,0 -3.2,0 0,-0.1 0,-0.1 0.1,-0.2 0.7,-0.2 1.5,-0.1 2.2,-0.1 0.9,0 0.9,0 1,-0.9 0,-0.2 0,-0.4 0.1,-0.6 0,-0.2 0.1,-0.2 0.1,-0.1 z"
     id="path3119" /><path
     style="fill:#156335"
     inkscape:connector-curvature="0"
     d="m 230.9,424.8 c 0,0 -0.1,0 -0.1,0 -0.1,0.1 -0.2,0.1 -0.3,0.1 -1,0.1 -2.1,0.1 -3.1,-0.1 -0.1,0 -0.1,-0.1 -0.1,-0.2 1.1,0 2.2,0 3.3,0 0.2,0 0.3,0 0.3,0.2 z"
     id="path3123" /><path
     style="fill:#166637"
     inkscape:connector-curvature="0"
     d="m 227.4,424.7 c 0,0 0,0.1 0,0.1 0.3,0.6 0.3,1.2 0,1.8 0,0 0,0.1 0,0.1 -0.2,-0.7 -0.2,-1.4 0,-2 z"
     id="path3125" /><path
     style="fill:#166536"
     inkscape:connector-curvature="0"
     d="m 230.9,423.8 c 0,0 -0.1,-0.1 -0.1,-0.1 -0.3,-0.6 -0.3,-1.1 0,-1.7 0,0 0.1,-0.1 0.1,-0.1 0.1,0.7 0.1,1.3 0,1.9 z"
     id="path3127" /><path
     style="fill:#166536"
     inkscape:connector-curvature="0"
     d="m 227.3,419.1 c 0,0 0.1,0.1 0.1,0.1 0.3,0.6 0.3,1.1 0,1.7 0,0 -0.1,0.1 -0.1,0.1 -0.1,-0.6 -0.1,-1.3 0,-1.9 z"
     id="path3129" /><path
     style="fill:#166536"
     inkscape:connector-curvature="0"
     d="m 230.8,419.2 c 0,0 0.1,-0.1 0.1,-0.1 0,0.6 0.1,1.3 0,1.9 0,0 -0.1,-0.1 -0.1,-0.1 -0.3,-0.6 -0.3,-1.1 0,-1.7 z"
     id="path3131" /><path
     style="fill:#166536"
     inkscape:connector-curvature="0"
     d="m 227.4,423.7 c 0,0 -0.1,0.1 -0.1,0.1 -0.1,-0.6 -0.1,-1.3 0,-1.9 0,0 0.1,0.1 0.1,0.1 0.3,0.6 0.3,1.2 0,1.7 z"
     id="path3133" /><path
     style="fill:#226e42"
     inkscape:connector-curvature="0"
     d="m 227.4,423.7 c 0,-0.6 0,-1.1 0,-1.7 1.1,0 2.3,0 3.4,0 0,0.6 0,1.1 0,1.7 -1.1,0 -2.3,0 -3.4,0 z"
     id="path3137" /><path
     style="fill:#226e42"
     inkscape:connector-curvature="0"
     d="m 230.8,419.2 c 0,0.6 0,1.1 0,1.7 -1.1,0 -2.3,0 -3.4,0 0,-0.6 0,-1.1 0,-1.7 1.1,0 2.3,0 3.4,0 z"
     id="path3139" /><path
     style="fill:#226e42"
     inkscape:connector-curvature="0"
     d="m 227.4,426.5 c 0,-0.6 0,-1.2 0,-1.8 1.1,0 2.3,0 3.4,0 0,0.6 0.2,1.3 -0.1,1.6 -0.3,0.4 -1.1,0.1 -1.6,0.1 -0.6,0.2 -1.1,0.1 -1.7,0.1 z"
     id="path3145" /></g></svg>