<?xml version="1.0" encoding="UTF-8" standalone="no"?>
<!-- Generator: Adobe Illustrator 18.0.0, SVG Export Plug-In . SVG Version: 6.00 Build 0)  -->

<svg
   xmlns:dc="http://purl.org/dc/elements/1.1/"
   xmlns:cc="http://creativecommons.org/ns#"
   xmlns:rdf="http://www.w3.org/1999/02/22-rdf-syntax-ns#"
   xmlns:svg="http://www.w3.org/2000/svg"
   xmlns="http://www.w3.org/2000/svg"
   xmlns:sodipodi="http://sodipodi.sourceforge.net/DTD/sodipodi-0.dtd"
   xmlns:inkscape="http://www.inkscape.org/namespaces/inkscape"
   version="1.1"
   id="Camada_1"
   x="0px"
   y="0px"
   viewBox="0 0 51 51"
   enable-background="new 0 0 595.3 841.9"
   xml:space="preserve"
   inkscape:version="0.48.4 r9939"
   width="100%"
   height="100%"
   sodipodi:docname="icones4.svg"><metadata
   id="metadata3085"><rdf:RDF><cc:Work
       rdf:about=""><dc:format>image/svg+xml</dc:format><dc:type
         rdf:resource="http://purl.org/dc/dcmitype/StillImage" /><dc:title></dc:title></cc:Work></rdf:RDF></metadata><defs
   id="defs3083" /><sodipodi:namedview
   pagecolor="#ffffff"
   bordercolor="#666666"
   borderopacity="1"
   objecttolerance="10"
   gridtolerance="10"
   guidetolerance="10"
   inkscape:pageopacity="0"
   inkscape:pageshadow="2"
   inkscape:window-width="1366"
   inkscape:window-height="705"
   id="namedview3081"
   showgrid="false"
   inkscape:zoom="7.6745086"
   inkscape:cx="24.965267"
   inkscape:cy="31.906828"
   inkscape:window-x="-8"
   inkscape:window-y="-8"
   inkscape:window-maximized="1"
   inkscape:current-layer="Camada_1" />






















<g
   transform="matrix(2.1949046,0,0,2.1949046,-795.97484,-892.99693)"
   id="g3147"><path
     style="fill:#c33937"
     inkscape:connector-curvature="0"
     d="m 383.8,412.2 c 0,0 0,0 0,0 -0.1,0.2 0,0.3 0,0.4 0,4.9 0,9.8 0,14.8 0,0.1 0,0.2 0,0.3 0,0.1 0,0.2 0,0.3 -0.1,0.8 -0.4,1.3 -1.1,1.7 -0.3,0.2 -0.6,0.1 -0.9,0.2 -4.9,0 -9.8,0 -14.7,0 -0.7,-0.1 -1.3,-0.4 -1.7,-1 -0.2,-0.3 -0.2,-0.6 -0.3,-0.9 0,-0.1 0,-0.2 0,-0.3 0.1,-0.1 0,-0.3 0,-0.4 0,-6.1 0,-12.1 0,-18.2 -0.1,-1.1 1,-2.1 1.9,-2.1 0,0 0.1,0 0.1,0 3.7,0 7.5,0 11.2,0 0.8,0 1.3,0.4 1.8,1 0.9,0.9 1.9,1.9 2.8,2.8 0.5,0.3 0.9,0.8 0.9,1.4 z"
     id="path3149" /><path
     style="fill:#c22f23"
     inkscape:connector-curvature="0"
     d="m 365.2,409 c 0,0.2 0,0.4 0,0.7 0,5.9 0,11.7 0,17.6 0,0.1 0,0.3 -0.1,0.4 0,-6.2 0,-12.5 0.1,-18.7 -0.1,0 -0.1,0 0,0 z"
     id="path3151" /><path
     style="fill:#bd281a"
     inkscape:connector-curvature="0"
     d="m 383.8,427.7 c -0.1,-0.1 -0.1,-0.2 -0.1,-0.3 0,-4.9 0,-9.8 0,-14.8 0,-0.1 0,-0.2 0.1,-0.3 0,5.1 0,10.2 0,15.4 z"
     id="path3153" /><path
     style="fill:#f4f4f4"
     inkscape:connector-curvature="0"
     d="m 365.9,418.5 c 0,-3 0,-6 0,-9 0,-1 0.7,-1.7 1.7,-1.7 3.4,0 6.8,0 10.2,0 0.7,0 1.2,0.2 1.6,0.7 1,1 2,2 3.1,3 0.4,0.4 0.5,0.8 0.5,1.3 0,4.9 0,9.8 0,14.7 0,1 -0.7,1.7 -1.7,1.7 -4.6,0 -9.2,0 -13.7,0 -1,0 -1.7,-0.6 -1.7,-1.7 0,-3 0,-6 0,-9 z"
     id="path3155" /><path
     style="fill:#c33937"
     inkscape:connector-curvature="0"
     d="m 374.8,412.8 c 0,0.8 -0.2,1.5 -0.4,2.1 -0.1,0.2 0,0.4 0.1,0.6 0.4,0.6 0.8,1.1 1.2,1.6 0.1,0.1 0.2,0.1 0.3,0.1 0.7,-0.1 1.4,-0.2 2.2,-0.1 0.3,0 0.5,0.1 0.7,0.3 0.3,0.2 0.4,0.4 0.3,0.7 -0.1,0.3 -0.3,0.5 -0.6,0.5 -0.8,0.1 -1.5,-0.1 -2.2,-0.5 -0.2,-0.1 -0.3,-0.2 -0.4,-0.3 -0.2,-0.2 -0.4,-0.2 -0.7,-0.2 -0.6,0.2 -1.3,0.3 -1.9,0.5 -0.2,0.1 -0.3,0.2 -0.4,0.4 -0.4,0.7 -0.9,1.3 -1.4,1.9 -0.3,0.3 -0.6,0.5 -1,0.6 -0.4,0.1 -0.7,-0.1 -0.9,-0.3 -0.2,-0.3 0,-0.6 0.2,-0.9 0.5,-0.5 1,-0.8 1.7,-1.1 0.6,-0.3 1,-0.7 1.3,-1.3 0.3,-0.8 0.6,-1.5 0.9,-2.3 0.1,-0.2 0,-0.3 0,-0.4 -0.3,-0.7 -0.4,-1.4 -0.4,-2.2 0,-0.1 0,-0.1 0,-0.2 0,-0.4 0.2,-0.7 0.6,-0.7 0.3,0 0.7,0.2 0.8,0.5 0,0.1 0,0.4 0,0.7 z"
     id="path3157" /><path
     style="fill:#2c2c2b"
     inkscape:connector-curvature="0"
     d="m 373.3,424.9 c 0,-0.5 0,-1 0,-1.5 0,-0.2 0,-0.2 0.2,-0.2 0.2,0 0.4,0 0.6,0 1.1,0 1.5,0.7 1.5,1.8 0,0.2 0,0.4 -0.1,0.6 -0.2,0.7 -0.6,1 -1.3,1.1 -1,0.1 -1,0.1 -1,-0.9 0.1,-0.3 0.1,-0.6 0.1,-0.9 z"
     id="path3159" /><path
     style="fill:#2c2c2b"
     inkscape:connector-curvature="0"
     d="m 370.7,424.9 c 0,-0.5 0,-1 0,-1.5 0,-0.2 0.1,-0.3 0.3,-0.3 0.4,0 0.7,0 1.1,0.1 0.5,0.1 0.8,0.5 0.8,1 0,0.6 -0.3,0.9 -0.7,1.1 -0.1,0 -0.2,0 -0.3,0 -0.5,0 -0.5,0 -0.5,0.6 0,0.2 0,0.3 0,0.5 0,0.3 -0.1,0.4 -0.4,0.4 -0.2,0 -0.2,-0.1 -0.2,-0.3 -0.1,-0.6 -0.1,-1.1 -0.1,-1.6 z"
     id="path3161" /><path
     style="fill:#2d2d2d"
     inkscape:connector-curvature="0"
     d="m 376.3,424.9 c 0,-0.5 0,-1 0,-1.5 0,-0.2 0,-0.3 0.2,-0.3 0.5,0 1,0 1.5,0 0.2,0 0.2,0 0.2,0.2 0,0.2 -0.1,0.2 -0.2,0.2 -0.3,0 -0.6,0 -0.9,0 -0.3,0 -0.3,0.2 -0.3,0.4 0.1,0.2 -0.3,0.7 0.3,0.7 0.2,0 0.4,0 0.6,0 0.2,0 0.2,0.1 0.2,0.2 0,0.2 0,0.3 -0.2,0.3 -0.2,0 -0.4,0 -0.6,0 -0.2,0 -0.3,0 -0.3,0.3 0,0.3 0,0.7 0,1 0,0.3 -0.1,0.2 -0.3,0.2 -0.2,0 -0.3,0 -0.3,-0.3 0.1,-0.4 0.1,-0.9 0.1,-1.4 z"
     id="path3163" /><path
     style="fill:#f4f3f2"
     inkscape:connector-curvature="0"
     d="m 375.6,417.2 c -0.8,0.2 -1.5,0.3 -2.2,0.6 0.3,-0.8 0.6,-1.6 0.9,-2.3 0.3,0.6 0.8,1.2 1.3,1.7 z"
     id="path3165" /><path
     style="fill:#f4f3f2"
     inkscape:connector-curvature="0"
     d="m 376,417.4 c 0.7,-0.1 1.2,-0.2 1.8,-0.1 0,0 0,0 0.1,0 0.4,0.1 0.7,0.3 0.7,0.7 -0.1,0.3 -0.4,0.4 -0.8,0.3 -0.6,-0.2 -1.2,-0.5 -1.8,-0.9 z"
     id="path3167" /><path
     style="fill:#f4f3f2"
     inkscape:connector-curvature="0"
     d="m 372,418.6 c -0.3,0.6 -0.7,1.1 -1.1,1.5 -0.2,0.2 -0.3,0.3 -0.5,0.4 -0.2,0.1 -0.3,0.1 -0.5,-0.1 -0.1,-0.2 -0.1,-0.4 0,-0.5 0.1,-0.1 0.2,-0.3 0.4,-0.4 0.5,-0.3 1.1,-0.6 1.7,-0.9 z"
     id="path3169" /><path
     style="fill:#f4f3f2"
     inkscape:connector-curvature="0"
     d="m 373.9,414.4 c -0.3,-0.8 -0.5,-1.5 -0.3,-2.3 0,-0.2 0.1,-0.4 0.4,-0.4 0.2,0 0.3,0.2 0.3,0.4 0,0.8 -0.2,1.5 -0.4,2.3 z"
     id="path3171" /><path
     style="fill:#f4f4f4"
     inkscape:connector-curvature="0"
     d="m 373.9,424.9 c 0,-0.3 0,-0.7 0,-1 0,-0.2 0.1,-0.3 0.3,-0.3 0.5,0.1 0.7,0.3 0.8,0.8 0.1,0.5 0.1,0.9 -0.1,1.4 -0.2,0.3 -0.5,0.5 -0.9,0.5 -0.2,0 -0.1,-0.1 -0.1,-0.2 0,-0.4 0,-0.8 0,-1.2 z"
     id="path3173" /><path
     style="fill:#f3f3f3"
     inkscape:connector-curvature="0"
     d="m 371.3,424.2 c 0,-0.1 0,-0.1 0,-0.2 0.1,-0.2 -0.1,-0.4 0.1,-0.5 0.4,-0.1 0.7,0.1 0.8,0.4 0.2,0.7 -0.2,0.9 -0.8,0.8 -0.1,0 -0.1,-0.1 -0.1,-0.2 0,0.1 0,-0.1 0,-0.3 z"
     id="path3175" /></g></svg>