<svg xmlns="http://www.w3.org/2000/svg" width="45" height="45" viewBox="0 0 50 50"><title>Icone</title><g id="fbb2b5e0-005a-439d-992b-dc9be53e51bf" data-name="Secretaria Academica"><path d="M19.37,20.29a6.94,6.94,0,1,1,6.94-6.94A7,7,0,0,1,19.37,20.29Zm0-12.45a5.5,5.5,0,1,0,5.5,5.5A5.51,5.51,0,0,0,19.37,7.85Z" fill="#fff"/><path d="M49.28,38.79H34.58v-8a8.87,8.87,0,0,0-8.72-9H12.81a8.75,8.75,0,0,0-8.62,8.86v8.11H.72a.72.72,0,0,0-.72.72v3.36a.72.72,0,0,0,.72.72H49.28a.72.72,0,0,0,.72-.72V39.51A.72.72,0,0,0,49.28,38.79ZM5.63,30.68a7.31,7.31,0,0,1,7.18-7.42H25.87a7.43,7.43,0,0,1,7.28,7.53v8H28.4V32.33a.72.72,0,0,0-.72-.72h-.43a.72.72,0,0,0-.72.72v6.46H12.3V32.33a.72.72,0,0,0-.72-.72H11a.72.72,0,0,0-.72.72v6.46H5.63ZM48.56,42.15H1.44V40.23H48.56Z" fill="#fff"/></g></svg>